{
    "asset" : {
        "generator" : "Khronos glTF Blender I/O v1.3.48",
        "version" : "2.0"
    },
    "scene" : 0,
    "scenes" : [
        {
            "name" : "Scene",
            "nodes" : [
                0,
                1,
                2
            ]
        }
    ],
    "nodes" : [
        {
            "name" : "Light",
            "rotation" : [
                0.16907575726509094,
                0.7558803558349609,
                -0.27217137813568115,
                0.570947527885437
            ],
            "translation" : [
                4.076245307922363,
                5.903861999511719,
                -1.0054539442062378
            ]
        },
        {
            "name" : "Camera",
            "rotation" : [
                0.483536034822464,
                0.33687159419059753,
                -0.20870360732078552,
                0.7804827094078064
            ],
            "translation" : [
                7.358891487121582,
                4.958309173583984,
                6.925790786743164
            ]
        },
        {
            "mesh" : 0,
            "name" : "Cylinder03",
            "rotation" : [
                1,
                0,
                0,
                7.549790126404332e-08
            ],
            "scale" : [
                -0.017925091087818146,
                -0.021962767466902733,
                -0.015849214047193527
            ],
            "translation" : [
                0,
                1.2316372394561768,
                0
            ]
        }
    ],
    "materials" : [
        {
            "doubleSided" : true,
            "emissiveFactor" : [
                0,
                0,
                0
            ],
            "name" : "02 - Default",
            "pbrMetallicRoughness" : {
                "baseColorFactor" : [
                    0.988235354423523,
                    0.988235354423523,
                    0.988235354423523,
                    1
                ],
                "roughnessFactor" : 0.39371341466903687
            }
        },
        {
            "doubleSided" : true,
            "emissiveFactor" : [
                0,
                0,
                0
            ],
            "name" : "Material #2",
            "pbrMetallicRoughness" : {
                "baseColorFactor" : [
                    0.18431372940540314,
                    0.3686274588108063,
                    0.9725490808486938,
                    1
                ],
                "metallicFactor" : 1,
                "roughnessFactor" : 0.6394997835159302
            }
        },
        {
            "doubleSided" : true,
            "emissiveFactor" : [
                0,
                0,
                0
            ],
            "name" : "Material #1",
            "pbrMetallicRoughness" : {
                "baseColorFactor" : [
                    0.11764706671237946,
                    0.11764706671237946,
                    0.11764706671237946,
                    1
                ],
                "metallicFactor" : 1,
                "roughnessFactor" : 0.6861664056777954
            }
        }
    ],
    "meshes" : [
        {
            "name" : "Mesh",
            "primitives" : [
                {
                    "attributes" : {
                        "POSITION" : 0,
                        "NORMAL" : 1,
                        "TEXCOORD_0" : 2
                    },
                    "indices" : 3,
                    "material" : 0
                },
                {
                    "attributes" : {
                        "POSITION" : 4,
                        "NORMAL" : 5,
                        "TEXCOORD_0" : 6
                    },
                    "indices" : 7,
                    "material" : 1
                },
                {
                    "attributes" : {
                        "POSITION" : 8,
                        "NORMAL" : 9,
                        "TEXCOORD_0" : 10
                    },
                    "indices" : 11,
                    "material" : 2
                }
            ]
        }
    ],
    "accessors" : [
        {
            "bufferView" : 0,
            "componentType" : 5126,
            "count" : 12539,
            "max" : [
                42.140037536621094,
                46.96218490600586,
                22.448108673095703
            ],
            "min" : [
                -42.36280822753906,
                -52.81970977783203,
                -16.285673141479492
            ],
            "type" : "VEC3"
        },
        {
            "bufferView" : 1,
            "componentType" : 5126,
            "count" : 12539,
            "type" : "VEC3"
        },
        {
            "bufferView" : 2,
            "componentType" : 5126,
            "count" : 12539,
            "type" : "VEC2"
        },
        {
            "bufferView" : 3,
            "componentType" : 5123,
            "count" : 52842,
            "type" : "SCALAR"
        },
        {
            "bufferView" : 4,
            "componentType" : 5126,
            "count" : 1823,
            "max" : [
                42.00859069824219,
                49.24639129638672,
                22.694046020507812
            ],
            "min" : [
                -42.231361389160156,
                -51.664520263671875,
                -16.731040954589844
            ],
            "type" : "VEC3"
        },
        {
            "bufferView" : 5,
            "componentType" : 5126,
            "count" : 1823,
            "type" : "VEC3"
        },
        {
            "bufferView" : 6,
            "componentType" : 5126,
            "count" : 1823,
            "type" : "VEC2"
        },
        {
            "bufferView" : 7,
            "componentType" : 5123,
            "count" : 4848,
            "type" : "SCALAR"
        },
        {
            "bufferView" : 8,
            "componentType" : 5126,
            "count" : 1892,
            "max" : [
                32.017921447753906,
                33.99055480957031,
                10.085824012756348
            ],
            "min" : [
                -32.24069595336914,
                -8.85903549194336,
                -10.042173385620117
            ],
            "type" : "VEC3"
        },
        {
            "bufferView" : 9,
            "componentType" : 5126,
            "count" : 1892,
            "type" : "VEC3"
        },
        {
            "bufferView" : 10,
            "componentType" : 5126,
            "count" : 1892,
            "type" : "VEC2"
        },
        {
            "bufferView" : 11,
            "componentType" : 5123,
            "count" : 3714,
            "type" : "SCALAR"
        }
    ],
    "bufferViews" : [
        {
            "buffer" : 0,
            "byteLength" : 150468,
            "byteOffset" : 0
        },
        {
            "buffer" : 0,
            "byteLength" : 150468,
            "byteOffset" : 150468
        },
        {
            "buffer" : 0,
            "byteLength" : 100312,
            "byteOffset" : 300936
        },
        {
            "buffer" : 0,
            "byteLength" : 105684,
            "byteOffset" : 401248
        },
        {
            "buffer" : 0,
            "byteLength" : 21876,
            "byteOffset" : 506932
        },
        {
            "buffer" : 0,
            "byteLength" : 21876,
            "byteOffset" : 528808
        },
        {
            "buffer" : 0,
            "byteLength" : 14584,
            "byteOffset" : 550684
        },
        {
            "buffer" : 0,
            "byteLength" : 9696,
            "byteOffset" : 565268
        },
        {
            "buffer" : 0,
            "byteLength" : 22704,
            "byteOffset" : 574964
        },
        {
            "buffer" : 0,
            "byteLength" : 22704,
            "byteOffset" : 597668
        },
        {
            "buffer" : 0,
            "byteLength" : 15136,
            "byteOffset" : 620372
        },
        {
            "buffer" : 0,
            "byteLength" : 7428,
            "byteOffset" : 635508
        }
    ],
    "buffers" : [
        {
            "byteLength" : 642936,
            "uri" : "data:application/octet-stream;base64,"
        }
    ]
}
